<svg width="165" height="70" viewBox="0 0 165 70" fill="none" xmlns="http://www.w3.org/2000/svg">
<path fill-rule="evenodd" clip-rule="evenodd" d="M72.0472 35L36.0236 0L0 35L36.0236 70L72.0472 35ZM56.9235 35.5063L36.2952 15.8842L15.6668 35.5063L36.2952 55.1284L56.9235 35.5063Z" fill="#F44141"/>
<path d="M91.2609 44.3662C90.9727 44.3662 90.8286 44.2676 90.8286 44.0704V28.8912C90.8286 28.6941 90.9727 28.5955 91.2609 28.5955H101.082C101.359 28.5955 101.59 28.6586 101.774 28.7848L105.232 31.151C105.428 31.285 105.526 31.4428 105.526 31.6242V44.0704C105.526 44.2676 105.382 44.3662 105.094 44.3662H100.201C99.9123 44.3662 99.7682 44.2676 99.7682 44.0704V31.7425H96.5866V44.0704C96.5866 44.2676 96.4425 44.3662 96.1544 44.3662H91.2609ZM114.117 44.3662C113.852 44.3662 113.621 44.2991 113.426 44.165L109.967 41.7988C109.771 41.6726 109.673 41.5149 109.673 41.3256V31.6242C109.673 31.4428 109.771 31.285 109.967 31.151L113.426 28.7848C113.621 28.6586 113.852 28.5955 114.117 28.5955H120.913C121.189 28.5955 121.42 28.6586 121.604 28.7848L125.063 31.151C125.259 31.285 125.357 31.4428 125.357 31.6242V41.3256C125.357 41.5149 125.259 41.6726 125.063 41.7988L121.604 44.165C121.42 44.2991 121.189 44.3662 120.913 44.3662H114.117ZM116.158 41.2073H118.872C119.356 41.2073 119.599 40.9864 119.599 40.5448V32.4169C119.599 31.9673 119.356 31.7425 118.872 31.7425H116.158C115.685 31.7425 115.449 31.9673 115.449 32.4169V40.5448C115.449 40.9864 115.685 41.2073 116.158 41.2073ZM133.941 44.3662C133.664 44.3662 133.434 44.2991 133.249 44.165L129.791 41.7988C129.595 41.6726 129.497 41.5149 129.497 41.3256V28.8912C129.497 28.6941 129.641 28.5955 129.929 28.5955H134.823C135.111 28.5955 135.255 28.6941 135.255 28.8912V41.1955H139.128V28.8912C139.128 28.6941 139.272 28.5955 139.561 28.5955H144.454C144.742 28.5955 144.886 28.6941 144.886 28.8912V41.3256C144.886 41.5149 144.788 41.6726 144.592 41.7988L141.134 44.165C140.95 44.2991 140.719 44.3662 140.443 44.3662H133.941ZM149.363 44.3662C149.074 44.3662 148.93 44.2676 148.93 44.0704V33.1031C148.93 33.0005 148.988 32.8822 149.103 32.7481L153.201 28.7729C153.328 28.6546 153.513 28.5955 153.755 28.5955H159.478C159.732 28.5955 159.916 28.6546 160.031 28.7729L164.147 32.7481C164.262 32.8586 164.32 32.9769 164.32 33.1031V44.0704C164.32 44.2676 164.176 44.3662 163.887 44.3662H158.994C158.706 44.3662 158.562 44.2676 158.562 44.0704V39.0422H154.706V44.0704C154.706 44.2676 154.562 44.3662 154.273 44.3662H149.363ZM156.625 36.4986C157.686 36.4986 158.4 36.3408 158.769 36.0253C159.15 35.7019 159.34 35.0907 159.34 34.1915C159.34 33.2924 159.15 32.685 158.769 32.3695C158.4 32.0462 157.686 31.8845 156.625 31.8845C155.576 31.8845 154.861 32.0462 154.481 32.3695C154.112 32.685 153.928 33.2924 153.928 34.1915C153.928 35.0907 154.112 35.7019 154.481 36.0253C154.861 36.3408 155.576 36.4986 156.625 36.4986Z" fill="#F44141"/>
<circle cx="35.2954" cy="35.5063" r="8.55322" fill="#F44141"/>
</svg>
